<svg width="5" height="5" viewBox="0 0 5 5" fill="none" xmlns="http://www.w3.org/2000/svg">
<path d="M4.815 2.705C4.815 2.975 4.765 3.235 4.665 3.485C4.575 3.725 4.44 3.94 4.26 4.13C4.08 4.31 3.865 4.455 3.615 4.565C3.365 4.675 3.085 4.73 2.775 4.73C2.455 4.73 2.17 4.675 1.92 4.565C1.67 4.455 1.455 4.31 1.275 4.13C1.105 3.94 0.97 3.725 0.87 3.485C0.78 3.235 0.735 2.975 0.735 2.705C0.735 2.435 0.78 2.18 0.87 1.94C0.97 1.69 1.105 1.475 1.275 1.295C1.455 1.115 1.67 0.97 1.92 0.86C2.17 0.75 2.455 0.695 2.775 0.695C3.085 0.695 3.365 0.75 3.615 0.86C3.865 0.97 4.08 1.115 4.26 1.295C4.44 1.475 4.575 1.69 4.665 1.94C4.765 2.18 4.815 2.435 4.815 2.705Z" fill="#B0ACAC"/>
</svg>
